<?xml version="1.0" encoding="UTF-8" standalone="no"?>
<svg
   width="2784"
   height="1895"
   viewBox="0 0 2784 1895"
   fill="none"
   version="1.1"
   id="svg98"
   sodipodi:docname="hackfest21.svg"
   inkscape:version="1.1 (ce6663b3b7, 2021-05-25)"
   xmlns:inkscape="http://www.inkscape.org/namespaces/inkscape"
   xmlns:sodipodi="http://sodipodi.sourceforge.net/DTD/sodipodi-0.dtd"
   xmlns="http://www.w3.org/2000/svg"
   xmlns:svg="http://www.w3.org/2000/svg">
  <defs
     id="defs102" />
  <sodipodi:namedview
     id="namedview100"
     pagecolor="#ffffff"
     bordercolor="#666666"
     borderopacity="1.0"
     inkscape:pageshadow="2"
     inkscape:pageopacity="0.0"
     inkscape:pagecheckerboard="0"
     showgrid="false"
     height="2063px"
     inkscape:zoom="0.40891473"
     inkscape:cx="1182.3981"
     inkscape:cy="837.58294"
     inkscape:window-width="1852"
     inkscape:window-height="1016"
     inkscape:window-x="68"
     inkscape:window-y="27"
     inkscape:window-maximized="1"
     inkscape:current-layer="svg98" />
  <path
     d="m 2454.63,927.81 -0.63,-23.91 -72.05,-0.46 c 4.51,81.06 4.51,110.33 4.51,247.22 27,11.71 56.73,23.87 68.44,32.42 l 56.3,-62.59 c -15.77,-1.35 -42.34,-10.35 -57.2,-18.91 0,-80.61 0,-105.82 0.9,-133.29 z"
     fill="#91a88c"
     id="path2" />
  <path
     d="m 1451.58,1101.58 -67.58,49.08 c 27,11.71 54.49,23.87 66.19,32.42 l 56.29,-62.59 c -15.72,-1.35 -40.04,-10.35 -54.9,-18.91 z"
     fill="#677662"
     id="path4" />
  <path
     d="M 933.23,955.68 978,894.45 977.35,893.99 858,947.13 c 4.5,53.13 4.5,98.61 4.5,189.58 30.17,9 78.8,27.91 118,46.37 l 52.69,-62.59 c -31.07,-4.5 -80.16,-15.31 -103.12,-28.82 0,-57.64 0,-89.61 3.14,-136 z"
     fill="#91a88c"
     id="path6" />
  <path
     d="m 698,1121.08 -8.42,-2.84 c -24.76,-6.3 -49.08,-14.41 -69.34,-26.57 0,-57.64 1,-89.72 4.15,-136.1 h 0.17 L 668.92,895 667.54,894 548.2,947.13 c 4.5,53.13 4.5,98.61 4.5,189.58 25.22,6.3 60.79,27.91 93.66,46.37 0,0 40.54,-48.18 50.44,-59.89 z"
     fill="#91a88c"
     id="path8" />
  <path
     d="m 1783.47,1130 -75.2,-10.36 c -27.47,-6.75 -55.84,-14.86 -77.9,-27.92 0,-57.19 0,-89.16 3.15,-134.64 l 0.31,0.05 52.83,-63.13 -128.34,53.14 c 4.5,53.13 4.5,98.61 4.5,189.58 25.22,6.3 73.41,32.87 92.32,46.37 z"
     fill="#91a88c"
     id="path10" />
  <path
     d="M 2315.18,1031.3 H 2259.94 2205 c 0.44,-25.67 1.34,-48.18 3.14,-75.65 l 0.33,0.1 43.87,-61.75 h -0.05 L 2133,947.13 c 4.5,53.13 4.5,98.61 4.5,189.58 30.16,9 78.8,27.91 118,46.37 l 52.69,-62.59 c -31.07,-4.5 -80.16,-15.31 -103.12,-28.82 v -40.53 l 57.18,22.52 c 19.2,-16.51 29.11,-25.51 52.95,-42.33"
     fill="#91a88c"
     id="path12" />
  <path
     d="m 337,903.9 111.23,13.5 15.31,-76.55 -134.73,-13.47 8.19,76.93 c 0,-0.14 0,-0.31 0,-0.41 z"
     fill="#677662"
     id="path14" />
  <path
     d="m 478.38,1212.81 c -4.5,-81.06 -4.5,-139.15 -4.5,-230.109 -25.23,-6.3 -77.91,-32.87 -96.82,-46.39 l -42.54,47.35 V 1003 c 23.79,7.18 48,15.72 67.31,28.74 0,72 0,109 -4.51,190 z"
     fill="#677662"
     id="path16" />
  <path
     d="m 2386.26,1151.12 c 26.87,11.64 57,23.47 68.68,32 l 56.29,-62.59 c -14.89,-1.28 -41.28,-10.91 -56.47,-19 z"
     fill="#677662"
     id="path18" />
  <path
     d="m 1539.38,1553 -15.1,-69.31 -78.2,13.33 c -15.11,-39.1 -21.77,-61.32 -31.55,-100.42 22.22,-13.77 70.21,-44.43 90.64,-61.31 36,8.88 72.43,19.55 101.75,19.55 l -18.66,72.42 c -28.43,-6.22 -69.31,-21.77 -96,-33.32 l 25.32,74.64 68,-20.88 c 12,36 20,69.31 28,112 -28.44,19.11 -54.65,45.76 -70.65,60 -47.1,-8.88 -72.87,-13.77 -122.19,-13.77 7.11,-31.55 20,-56.87 32,-76 z"
     fill="#677662"
     id="path20" />
  <path
     d="m 1751.32,1344.15 h 39.1 l -6.22,44 H 1750 c -0.89,37.33 -0.89,78.64 -0.89,151.07 14.67,8.44 38.66,17.33 54.21,18.66 l -55.54,61.76 c -11.55,-8.44 -38.65,-20.44 -65.31,-32 0,-82.64 0,-145.29 -0.89,-199.5 h -21.33 c 8,-19.55 12,-24.44 20,-44 -0.44,-18.21 -1.33,-36 -2.21,-53.32 l 75.53,8.89 c -0.92,16.45 -1.81,30.67 -2.25,44.44 z"
     fill="#677662"
     id="path22" />
  <path
     d="m 1682.45,1587.64 c 0,-82.64 0,-145.29 -0.89,-199.5 h -21.33 c 8,-19.55 12,-24.44 20,-44 -0.44,-18.21 -1.33,-36 -2.21,-53.32 l 75.53,8.89 c -0.89,16.44 -1.78,30.66 -2.22,44.43 h 39.1 l -6.22,44 H 1750 c -0.89,37.33 -0.89,78.64 -0.89,151.07"
     fill="#91a88c"
     id="path24" />
  <path
     d="M 1456.18,1495.28 1526,1466 l -8.41,2.58 -25.32,-74.64 10.22,-56.52 c -21.66,17.22 -66.66,46 -88,59.18 9.78,39.1 16.44,61.32 31.55,100.42 z"
     fill="#91a88c"
     id="path26" />
  <path
     d="m 1539.39,1553 -86.64,-23.1 c -12,19.11 -24.89,44.43 -32,76 49.32,0 75.09,4.89 122.19,13.77 15.78,-14 41.52,-40.16 69.52,-59.2 z"
     fill="#91a88c"
     id="path28" />
  <path
     d="m 1364.66,1365.75 -0.91,104.92 c -24.31,17.12 -34.21,26.13 -53.58,42.79 L 1253,1490.94 v 40.53 c 23,13.51 72,24.32 103.12,28.82 l -52.69,62.59 c -39.18,-18.46 -87.82,-37.37 -118,-46.38 0,-91 0,-136.45 -4.5,-189.58 l 119.33,-53.13 c 18.92,13.5 36.48,18.91 64.4,31.96 z m -56.74,105.37 v -54.93 c -16.21,-8.1 -31.07,-14 -51.79,-20.71 -1.8,27.46 -2.7,50 -3.14,75.64 z"
     fill="#91a88c"
     id="path30" />
  <path
     d="m 1259,1395.48 -0.07,0.94 c 19.22,6.36 33.5,12 49,19.77 v 54.93 h 55.2 l 0.63,-0.45 0.91,-104.92 c -26.64,-12.45 -43.85,-18 -61.8,-30.17 z"
     fill="#677662"
     id="path32" />
  <path
     d="m 1089.65,1639.32 0.64,-0.38 c -0.89,-103.44 0,-139.57 2.66,-250.11 h 24.03 l 19.13,-50.71 h -41.82 l 5.21,-43.14 c 27.14,-8.62 48.55,-22.96 69,-26 -0.88,-0.51 -54.96,-33.3 -66.5,-48 -11.57,9.63 -51.3,22.31 -77.99,35.52 1.33,25.86 2.67,53.24 3.56,81.63 h -0.44 l -19.13,50.72 h 21.35 c 0.26,8.85 0.5,17.34 0.73,25.57 h -8.95 c 0.9,62.7 0.9,186.58 0.9,282.16 27.03,13.36 23.92,7.63 35.64,17.4 l 64.07,-59.34 c -15.78,-1.56 -17.22,-4.31 -32.09,-14.06 z"
     fill="#677662"
     id="path34" />
  <path
     d="m 1099,1302.48 24.5,-13.5 43.56,28.31 30.48,-46.54 c -0.02,-0.27 -0.12,-1.27 -0.16,-1.49 l -87.61,-56.84 c -24.9,15.66 -71.79,37.08 -91.77,45.56 z"
     fill="#677662"
     id="path36" />
  <path
     d="m 1094.41,1338.23 4.59,-36.25 10,-89 c -8.2,6.85 -43.71,22.68 -61.85,31.96 v -0.34 l -29.62,13.24 c 0.89,20.06 1.81,40.64 2.26,61.68 -0.29,0.32 -0.3,7.92 -0.18,18.67 H 985.547 L 968,1388.95 h 52.5 c 0.32,14.56 0.6,25.6 0.6,25.6 0.9,62.76 0.9,186.76 0.9,282.43 l 67.72,-56.05 v -1.25 l 0.65,-0.38 c -0.9,-103.54 0,-139.7 2.66,-250.35 h 43.23 l 19.74,-50.72 z"
     fill="#91a88c"
     id="path38" />
  <path
     d="m 337,904.31 -8.15,-76.93 h -0.39 c -20.71,17.12 -45.92,36.92 -68.44,50.88 4.5,81.06 2.7,210.75 -1.8,295.86 h 80.6 c -2.14,-40.65 -3.69,-87.5 -4.26,-134.31 v -81.88 z"
     fill="#91a88c"
     id="path40" />
  <path
     d="m 1175.28,951.29 c 1.83,-52 2,-91.53 3.84,-123.95 l -76.55,9 c 4.51,81 3.61,200.83 3.61,337.73 h 68.44 V 1052.5 Z"
     fill="#91a88c"
     id="path42" />
  <path
     d="m 1303,1043.49 c -15.31,-6.76 -32.43,-14.86 -46.38,-22.06 l 36.92,-14 v -80.57 c -34.22,-11.26 -45.93,-18 -70.7,-32.87 0,0 -31.37,34.58 -47.17,52.36 l -0.11,12 c 21.62,4 31.07,5.86 50.44,11.25 v 23.9 c 0,4.49 -30.9,29.13 -51.16,47.13 l -0.1,10.68 1,0.79 c 26,9.44 45.8,17.52 59.72,23.81 0,22.52 -0.45,80.6 -0.45,99.52 l 68,8.1 c -2.3,-34.66 -2.3,-100.41 -0.01,-140.04 z"
     fill="#677662"
     id="path44" />
  <path
     d="m 933.23,955.68 c 28.38,9.45 46.39,16.661 70.71,31.521 L 1041.76,926 c -27.6,-12.91 -45.069,-18.35 -63.729,-31.52 z"
     fill="#677662"
     id="path46" />
  <path
     d="m 760.3,1101.58 c -0.74,-80.52 -0.46,-99.52 -0.46,-161.21 -24.65,-6.17 -71.16,-31.66 -90.91,-45.42 l -44.42,60.73 0.07,0.22 c 27.67,5 45.07,12.53 67.72,22.3 0,41 -1.11,77.44 -2.71,140 l 8.42,2.84 -1,2.35 c 17.54,28.71 41.75,51.57 53,59.65 l 56.29,-62.59 c -15.38,-2.21 -31.14,-10.31 -46,-18.87 z"
     fill="#677662"
     id="path48" />
  <path
     d="m 1384,1150.66 c 0,-83.75 0,-147.25 -0.9,-202.19 h -21.62 c 8.11,-19.81 12.16,-24.76 20.27,-44.57 -0.45,-18.47 -1.36,-36.48 -2.26,-54 l 76.56,9 c -0.9,16.66 -1.81,31.07 -2.26,45 h 39.63 l -6.3,44.57 h -34.68 c -0.9,37.83 -0.9,79.71 -0.9,153.11 z"
     fill="#91a88c"
     id="path50" />
  <path
     d="m 1633.62,957.34 4.4,0.53 c 26,4.88 52.54,11.38 73.4,20.33 0,42.32 0,75.64 -3.15,141.39 l 75.2,10.36 c -4.5,-81.06 -4.5,-127.89 -4.5,-189.58 -25.21,-6.31 -73.4,-32.88 -92.31,-46.38 z"
     fill="#677662"
     id="path52" />
  <path
     d="m 1921.69,948 c 2.62,-57.89 1.71,-104.78 2.75,-134.15 l -71.14,22.52 c 1.34,81 0.45,238.66 0.45,300.36 25.21,6.3 73.4,32.87 92.31,46.37 l 119.33,-53.1 v -0.14 l -75.45,-8.29 v -0.17 c -28.23,-4.95 -45.75,-12.6 -68.65,-22.48 0,-22 0,-80.15 0.45,-140.49 z"
     fill="#91a88c"
     id="path54" />
  <path
     d="m 2065.38,1129.81 c -4.49,-53.07 -4.49,-98.56 -4.49,-189.44 -25.22,-6.31 -60.8,-27.92 -93.67,-46.38 0,0 -30.79,36.46 -45.31,53.83 v 10.6 c 25.61,6.3 50.34,14.84 71.46,27 0,57.11 -1,90.14 -3.41,136.12 z"
     fill="#677662"
     id="path56" />
  <path
     d="m 2208.26,956.1 2.88,0.91 c 19.23,6.36 32.93,11.24 48.38,19 v 54.94 l 55.62,0.42 c 0.22,-0.16 1,-0.79 1.18,-0.94 L 2316.68,926 c -26.64,-12.46 -46.2,-20 -64.15,-32.21 z"
     fill="#677662"
     id="path58" />
  <path
     d="m 2481.51,894.89 -26.12,32.42 -0.63,0.71 v 39.91 l 3.2,1.65 c 13.91,5.865 27.49,12.499 40.66,19.87 l 54,-61.69 c -21.13,-10.36 -49.04,-22.07 -71.11,-32.87 z"
     fill="#677662"
     id="path60" />
  <path
     d="m 2014.9,541.81 c -1.3,-0.62 -2.6,-1.22 -3.88,-1.8 h 89.6 c 2.27,0 4.44,-0.9 6.04,-2.501 1.6,-1.602 2.5,-3.774 2.5,-6.039 0,-2.265 -0.9,-4.437 -2.5,-6.039 -1.6,-1.601 -3.77,-2.501 -6.04,-2.501 h -88.47 c 0.91,-0.42 1.83,-0.84 2.75,-1.28 35.2,-16.78 81.76,-52.8 103.63,-129.11 0.55,-2.154 0.23,-4.435 -0.87,-6.361 -1.11,-1.926 -2.93,-3.346 -5.06,-3.958 -2.14,-0.612 -4.43,-0.369 -6.39,0.678 -1.96,1.047 -3.43,2.815 -4.11,4.931 -16.07,56.07 -47.65,95.79 -93.88,118.07 -34.69,16.72 -65.18,16.89 -65.61,16.89 h -12.24 c -0.45,0.011 -0.9,0.058 -1.35,0.14 h -53.57 c 0.95,-2.859 2.89,-5.289 5.46,-6.86 7.64,-4.33 16,-5.26 24.42,-5.9 25.08,-1.9 45.79,-12 61.32,-32.13 7.15,-9.27 10.92,-19.82 12.23,-31.34 0.5,-4.41 1,-8.83 1.24,-13.25 -0.07,-1.686 -0.3,-3.361 -0.7,-5 -15.94,5.76 -32.11,8.21 -48,12 -6.16,1.49 -12.42,3.17 -18.11,5.88 -23.85,11.36 -39.1,29.88 -44.87,55.87 -0.51,2.29 -0.46,4.7 -1.06,7 -0.63,4.578 -0.52,9.23 0.35,13.77 h -68.25 c 7.97,-6.249 14.93,-13.694 20.62,-22.07 6.82,-9.74 13,-20.34 19,-30.6 9.18,-15.67 17.85,-30.47 28.48,-42.48 17.12,-19.35 39.38,-30.17 60.93,-29.72 h 51.26 c 1.86,6.927 6.16,12.953 12.1,16.975 5.94,4.022 13.13,5.772 20.25,4.93 7.12,-0.842 13.71,-4.219 18.55,-9.515 4.84,-5.296 7.61,-12.156 7.8,-19.327 0.2,-7.171 -2.19,-14.173 -6.73,-19.727 -4.54,-5.554 -10.93,-9.288 -17.99,-10.52 -7.07,-1.232 -14.35,0.12 -20.5,3.809 -6.15,3.69 -10.77,9.47 -13.01,16.285 h -51.45 c -26.62,-0.57 -53.58,12.4 -74,35.48 -11.73,13.26 -21.24,29.49 -30.43,45.18 -5.83,10 -11.87,20.25 -18.29,29.43 -13.41,19.17 -28.76,28.63 -52.15,31.87 h -28.17 c -2.35,-6.753 -7.04,-12.439 -13.22,-16.028 -6.18,-3.588 -13.45,-4.84 -20.47,-3.529 -7.03,1.312 -13.36,5.1 -17.83,10.678 -4.47,5.577 -6.79,12.573 -6.55,19.717 0.25,7.145 3.05,13.964 7.9,19.219 4.85,5.255 11.42,8.597 18.52,9.421 7.1,0.823 14.26,-0.928 20.18,-4.935 5.92,-4.007 10.21,-10.005 12.08,-16.903 h 23.78 l 0.41,-0.05 c 0.39,0 0.75,-0.09 1.14,-0.13 24.64,2.94 40.55,12.37 54.38,32.13 6.42,9.18 12.46,19.48 18.29,29.44 9.19,15.69 18.7,31.91 30.43,45.17 20,22.63 46.33,35.5 72.41,35.5 h 1.59 51.46 c 2.24,6.823 6.86,12.611 13.02,16.306 6.16,3.695 13.44,5.05 20.52,3.818 7.07,-1.233 13.47,-4.971 18.01,-10.53 4.55,-5.56 6.94,-12.57 6.75,-19.749 -0.2,-7.179 -2.98,-14.047 -7.82,-19.348 -4.85,-5.301 -11.44,-8.682 -18.57,-9.524 -7.13,-0.841 -14.33,0.912 -20.27,4.94 -5.95,4.028 -10.25,10.061 -12.11,16.997 h -51.26 c -21.63,0.43 -43.81,-10.37 -60.93,-29.71 -10.63,-12 -19.3,-26.82 -28.48,-42.49 -6,-10.25 -12.22,-20.85 -19,-30.6 -5.87,-8.693 -13.1,-16.385 -21.41,-22.78 h 68.79 c -0.59,4.06 -0.61,8.183 -0.07,12.25 0.6,2.27 0.55,4.68 1.06,7 5.77,26 21,44.5 44.87,55.87 5.82,2.577 11.89,4.544 18.11,5.87 15.85,3.82 32,6.26 48,12 0.4,-1.639 0.63,-3.314 0.7,-5 -0.28,-4.43 -0.74,-8.84 -1.24,-13.25 -1.31,-11.52 -5.08,-22.07 -12.23,-31.34 -15.53,-20.11 -36.24,-30.23 -61.32,-32.13 -8.43,-0.64 -16.78,-1.57 -24.42,-5.9 -2.1,-1.254 -3.77,-3.116 -4.79,-5.34 h 51 c 1.04,0.434 2.15,0.658 3.27,0.66 h 12.27 c 0.4,0 30.89,0.17 65.58,16.89 46.23,22.27 77.81,62 93.88,118.06 0.51,1.782 1.59,3.349 3.07,4.465 1.48,1.116 3.29,1.722 5.14,1.725 0.8,0.003 1.59,-0.108 2.36,-0.33 1.08,-0.309 2.09,-0.827 2.97,-1.525 0.88,-0.699 1.61,-1.564 2.15,-2.545 0.55,-0.982 0.89,-2.061 1.02,-3.177 0.12,-1.115 0.03,-2.244 -0.28,-3.323 -21.93,-76.32 -68.49,-112.34 -103.69,-129.12 z m -6.22,-164.29 c 2.53,-0.002 5.01,0.747 7.11,2.152 2.11,1.406 3.75,3.404 4.72,5.743 0.97,2.338 1.23,4.912 0.74,7.396 -0.5,2.484 -1.72,4.765 -3.5,6.556 -1.79,1.791 -4.08,3.012 -6.56,3.506 -2.48,0.495 -5.06,0.242 -7.4,-0.726 -2.34,-0.969 -4.33,-2.61 -5.74,-4.715 -1.41,-2.105 -2.16,-4.58 -2.16,-7.112 0,-3.392 1.35,-6.645 3.75,-9.045 2.4,-2.399 5.65,-3.75 9.04,-3.755 z m 0,283 c 2.53,-0.002 5.01,0.747 7.11,2.152 2.11,1.406 3.75,3.404 4.72,5.743 0.97,2.338 1.23,4.912 0.74,7.396 -0.5,2.484 -1.72,4.765 -3.5,6.556 -1.79,1.791 -4.08,3.012 -6.56,3.506 -2.48,0.495 -5.06,0.242 -7.4,-0.726 -2.34,-0.969 -4.33,-2.61 -5.74,-4.715 -1.41,-2.105 -2.16,-4.58 -2.16,-7.112 0,-1.684 0.32,-3.352 0.96,-4.91 0.64,-1.557 1.58,-2.973 2.77,-4.167 1.19,-1.193 2.6,-2.141 4.16,-2.788 1.55,-0.648 3.22,-0.982 4.9,-0.985 z m -311.06,-115 c -2.53,0.002 -5.01,-0.747 -7.11,-2.153 -2.11,-1.406 -3.75,-3.405 -4.72,-5.744 -0.97,-2.339 -1.23,-4.914 -0.73,-7.398 0.49,-2.484 1.71,-4.765 3.5,-6.556 1.79,-1.791 4.07,-3.01 6.56,-3.504 2.48,-0.493 5.05,-0.239 7.39,0.731 2.34,0.97 4.34,2.612 5.75,4.719 1.4,2.106 2.15,4.582 2.15,7.115 0,3.39 -1.35,6.641 -3.75,9.038 -2.4,2.397 -5.65,3.747 -9.04,3.752 z"
     fill="#677662"
     id="path62" />
  <path
     d="m 692.31,670.91 c -0.31,1.079 -0.404,2.208 -0.277,3.323 0.126,1.116 0.472,2.195 1.016,3.177 0.544,0.981 1.277,1.846 2.156,2.545 0.878,0.698 1.886,1.216 2.965,1.525 0.767,0.222 1.562,0.333 2.36,0.33 1.855,-0.003 3.658,-0.609 5.138,-1.725 1.481,-1.116 2.559,-2.683 3.072,-4.465 16.07,-56.06 47.65,-95.79 93.88,-118.06 34.69,-16.72 65.18,-16.89 65.58,-16.89 h 12.27 c 1.123,-0.002 2.235,-0.226 3.27,-0.66 h 51 c -1.019,2.224 -2.689,4.086 -4.79,5.34 -7.64,4.33 -16,5.26 -24.42,5.9 -25.08,1.9 -45.79,12 -61.32,32.13 -7.21,9.27 -10.94,19.82 -12.21,31.34 -0.5,4.41 -1,8.82 -1.24,13.25 0.072,1.685 0.307,3.36 0.7,5 15.94,-5.76 32.11,-8.2 48,-12 6.224,-1.326 12.293,-3.293 18.11,-5.87 23.85,-11.37 39.1,-29.88 44.87,-55.87 0.51,-2.29 0.46,-4.7 1.06,-7 0.541,-4.067 0.521,-8.189 -0.06,-12.25 h 68.78 c -8.32,6.372 -15.556,14.04 -21.44,22.71 -6.82,9.75 -13,20.35 -19,30.6 -9.18,15.67 -17.85,30.47 -28.48,42.49 -17.12,19.34 -39.29,30.14 -60.93,29.71 H 831 c -1.863,-6.927 -6.157,-12.953 -12.097,-16.975 -5.94,-4.022 -13.129,-5.772 -20.253,-4.93 -7.124,0.841 -13.707,4.219 -18.546,9.515 -4.839,5.296 -7.61,12.156 -7.807,19.327 -0.197,7.171 2.193,14.173 6.733,19.727 4.541,5.554 10.928,9.288 17.995,10.52 7.067,1.232 14.341,-0.12 20.494,-3.81 6.152,-3.689 10.77,-9.47 13.011,-16.284 h 51.47 1.59 c 26.08,0 52.39,-12.87 72.41,-35.5 11.73,-13.26 21.24,-29.48 30.43,-45.17 5.83,-10 11.87,-20.26 18.29,-29.44 13.83,-19.76 29.74,-29.19 54.38,-32.13 0.39,0 0.76,0.1 1.14,0.13 l 0.41,0.05 h 23.79 c 1.88,6.9 6.17,12.898 12.09,16.903 5.93,4.006 13.09,5.754 20.2,4.927 7.1,-0.827 13.67,-4.175 18.52,-9.434 4.84,-5.26 7.64,-12.083 7.88,-19.23 0.25,-7.147 -2.08,-14.144 -6.56,-19.721 -4.48,-5.577 -10.8,-9.363 -17.83,-10.671 -7.04,-1.308 -14.3,-0.05 -20.48,3.543 -6.19,3.594 -10.88,9.286 -13.22,16.043 h -28.17 c -23.39,-3.24 -38.74,-12.7 -52.15,-31.87 -6.42,-9.18 -12.45,-19.47 -18.29,-29.43 -9.19,-15.69 -18.7,-31.92 -30.43,-45.18 -20.43,-23.08 -47.39,-36.05 -74,-35.48 h -51.48 c -2.241,-6.823 -6.864,-12.611 -13.022,-16.306 -6.158,-3.695 -13.44,-5.05 -20.515,-3.818 -7.075,1.233 -13.47,4.97 -18.016,10.53 -4.546,5.56 -6.939,12.57 -6.742,19.749 0.198,7.178 2.973,14.046 7.817,19.348 4.845,5.301 11.436,8.682 18.568,9.524 7.132,0.841 14.329,-0.912 20.274,-4.94 5.946,-4.028 10.243,-10.061 12.106,-16.997 h 51.26 c 21.55,-0.45 43.81,10.37 60.93,29.72 10.63,12 19.3,26.81 28.49,42.48 6,10.26 12.21,20.86 19,30.6 5.694,8.376 12.65,15.821 20.62,22.07 h -68.22 c 0.867,-4.54 0.985,-9.192 0.35,-13.77 -0.6,-2.27 -0.55,-4.68 -1.06,-7 -5.77,-26 -21,-44.51 -44.87,-55.87 -5.69,-2.71 -12,-4.39 -18.11,-5.88 -15.85,-3.81 -32,-6.26 -48,-12 -0.392,1.64 -0.627,3.315 -0.7,5 0.28,4.42 0.74,8.84 1.24,13.25 1.31,11.52 5.08,22.07 12.23,31.34 15.53,20.11 36.24,30.23 61.32,32.13 8.43,0.64 16.78,1.57 24.42,5.9 2.572,1.571 4.506,4.001 5.46,6.86 h -53.53 c -0.445,-0.083 -0.897,-0.13 -1.35,-0.14 h -12.24 c -0.43,0 -30.92,-0.17 -65.61,-16.89 -46.23,-22.28 -77.81,-62 -93.88,-118.07 -0.281,-1.11 -0.782,-2.152 -1.474,-3.065 -0.692,-0.912 -1.56,-1.677 -2.553,-2.247 -0.992,-0.571 -2.09,-0.937 -3.226,-1.075 -1.137,-0.139 -2.29,-0.047 -3.391,0.268 -1.101,0.316 -2.127,0.849 -3.017,1.569 -0.891,0.72 -1.628,1.611 -2.168,2.621 -0.539,1.01 -0.871,2.118 -0.974,3.258 -0.103,1.141 0.024,2.29 0.373,3.381 21.87,76.31 68.43,112.33 103.63,129.11 0.92,0.44 1.84,0.86 2.75,1.28 h -88.47 c -2.265,0 -4.437,0.9 -6.038,2.501 -1.602,1.602 -2.502,3.774 -2.502,6.039 0,2.265 0.9,4.437 2.502,6.039 1.601,1.601 3.773,2.501 6.038,2.501 h 89.6 c -1.28,0.58 -2.58,1.18 -3.88,1.8 -35.2,16.87 -81.76,52.89 -103.63,129.19 z M 815,390.32 c 0,2.532 -0.751,5.007 -2.158,7.112 -1.406,2.105 -3.406,3.746 -5.746,4.715 -2.339,0.968 -4.913,1.221 -7.396,0.726 -2.484,-0.494 -4.764,-1.715 -6.554,-3.506 -1.79,-1.791 -3.008,-4.072 -3.501,-6.556 -0.493,-2.484 -0.238,-5.058 0.733,-7.396 0.97,-2.339 2.612,-4.337 4.718,-5.743 2.107,-1.405 4.582,-2.154 7.114,-2.152 3.393,0.005 6.644,1.356 9.042,3.755 2.398,2.4 3.746,5.653 3.748,9.045 z m 0,283 c 0,2.532 -0.751,5.007 -2.158,7.112 -1.406,2.105 -3.406,3.746 -5.746,4.715 -2.339,0.968 -4.913,1.221 -7.396,0.726 -2.484,-0.494 -4.764,-1.715 -6.554,-3.506 -1.79,-1.791 -3.008,-4.072 -3.501,-6.556 -0.493,-2.484 -0.238,-5.058 0.733,-7.396 0.97,-2.339 2.612,-4.337 4.718,-5.743 2.107,-1.405 4.582,-2.154 7.114,-2.152 3.384,0.005 6.628,1.349 9.024,3.738 2.397,2.389 3.751,5.628 3.766,9.012 z m 285.48,-140.54 c 0,-2.532 0.75,-5.009 2.15,-7.115 1.41,-2.107 3.41,-3.749 5.75,-4.719 2.34,-0.97 4.91,-1.224 7.4,-0.731 2.48,0.494 4.76,1.713 6.55,3.504 1.79,1.791 3.01,4.072 3.5,6.556 0.5,2.484 0.24,5.059 -0.73,7.398 -0.97,2.339 -2.61,4.338 -4.71,5.744 -2.11,1.406 -4.59,2.155 -7.12,2.153 -1.69,0.004 -3.36,-0.326 -4.92,-0.969 -1.56,-0.644 -2.97,-1.59 -4.17,-2.783 -1.19,-1.193 -2.14,-2.61 -2.78,-4.17 -0.64,-1.559 -0.97,-3.231 -0.97,-4.918 z"
     fill="#677662"
     id="path64" />
  <path
     d="m 2164.21,689.77 c -2.31,-1.333 -4.22,-3.25 -5.56,-5.558 -1.33,-2.308 -2.03,-4.926 -2.03,-7.592 0,-2.664 -0.7,-5.282 -2.03,-7.59 -1.33,-2.308 -3.25,-4.225 -5.55,-5.559 -2.31,-1.334 -4.92,-2.037 -7.59,-2.039 -2.66,-10e-4 -5.28,0.698 -7.59,2.028 v 0 c -2.31,1.33 -4.93,2.029 -7.6,2.029 -2.66,0 -5.28,-0.699 -7.59,-2.029 v 0 c -2.31,-1.334 -4.92,-2.037 -7.59,-2.039 -2.66,-0.002 -5.28,0.697 -7.59,2.028 -2.31,1.331 -4.23,3.246 -5.56,5.553 -1.33,2.306 -2.04,4.924 -2.04,7.588 0,2.666 -0.7,5.285 -2.03,7.593 -1.33,2.309 -3.25,4.226 -5.56,5.557 -2.31,1.331 -4.23,3.246 -5.56,5.554 -1.34,2.308 -2.04,4.926 -2.04,7.591 0,2.666 0.7,5.284 2.04,7.592 1.33,2.307 3.25,4.223 5.56,5.553 2.31,1.334 4.22,3.251 5.56,5.559 1.33,2.308 2.03,4.926 2.03,7.591 v 0 c 0,2.665 0.7,5.283 2.03,7.591 1.33,2.308 3.24,4.225 5.55,5.559 2.31,1.333 4.92,2.037 7.59,2.038 2.66,0.002 5.28,-0.697 7.59,-2.028 2.31,-1.329 4.93,-2.029 7.59,-2.029 2.66,0 5.28,0.7 7.59,2.029 2.31,1.335 4.92,2.038 7.59,2.04 2.66,0.002 5.28,-0.698 7.59,-2.028 2.31,-1.331 4.23,-3.246 5.56,-5.553 1.33,-2.307 2.04,-4.924 2.04,-7.589 0,-2.665 0.71,-5.284 2.04,-7.592 1.33,-2.308 3.25,-4.225 5.56,-5.558 2.31,-1.332 4.22,-3.248 5.55,-5.556 1.34,-2.307 2.04,-4.924 2.04,-7.589 0,-2.664 -0.7,-5.281 -2.04,-7.588 -1.33,-2.308 -3.24,-4.224 -5.55,-5.557 z m -18.56,19.86 c -1.18,0.682 -2.16,1.661 -2.84,2.84 -0.69,1.18 -1.05,2.518 -1.05,3.88 0,1.364 -0.36,2.704 -1.04,3.885 -0.68,1.181 -1.66,2.161 -2.84,2.843 -1.18,0.681 -2.52,1.039 -3.89,1.038 -1.36,-10e-4 -2.7,-0.362 -3.88,-1.046 -1.18,-0.683 -2.52,-1.042 -3.88,-1.042 -1.36,0 -2.7,0.359 -3.88,1.042 -1.18,0.681 -2.52,1.039 -3.88,1.039 -1.37,-0.001 -2.71,-0.36 -3.89,-1.042 -1.18,-0.682 -2.16,-1.663 -2.84,-2.843 -0.68,-1.181 -1.04,-2.52 -1.04,-3.884 0,-1.363 -0.36,-2.703 -1.04,-3.884 -0.68,-1.182 -1.66,-2.163 -2.84,-2.846 -1.18,-0.682 -2.16,-1.663 -2.84,-2.843 -0.68,-1.18 -1.04,-2.519 -1.04,-3.882 0,-1.362 0.36,-2.701 1.04,-3.881 0.68,-1.18 1.66,-2.161 2.84,-2.844 1.18,-0.681 2.16,-1.661 2.84,-2.841 0.68,-1.179 1.04,-2.517 1.04,-3.879 0,-1.363 0.36,-2.703 1.04,-3.884 0.69,-1.18 1.67,-2.16 2.85,-2.841 1.18,-0.681 2.52,-1.039 3.89,-1.038 1.36,10e-4 2.7,0.361 3.88,1.043 1.18,0.683 2.52,1.043 3.88,1.043 1.36,0 2.7,-0.36 3.88,-1.043 1.18,-0.68 2.52,-1.038 3.88,-1.038 1.37,10e-4 2.71,0.36 3.89,1.042 1.18,0.682 2.16,1.663 2.84,2.843 0.68,1.181 1.04,2.52 1.04,3.883 v 0 c 0,1.364 0.36,2.704 1.04,3.885 0.68,1.181 1.66,2.163 2.84,2.845 1.18,0.683 2.16,1.664 2.84,2.844 0.68,1.18 1.04,2.519 1.04,3.881 0,1.363 -0.36,2.702 -1.04,3.882 -0.68,1.18 -1.66,2.161 -2.84,2.843 z"
     fill="#f74700"
     id="path66" />
  <path
     d="m 2126.24,715.031 c 6.7,0 12.13,-5.431 12.13,-12.13 0,-6.7 -5.43,-12.13 -12.13,-12.13 -6.7,0 -12.13,5.43 -12.13,12.13 0,6.699 5.43,12.13 12.13,12.13 z"
     fill="#f74700"
     id="path68" />
  <path
     d="m 2267.74,505.21 c -4.74,-2.738 -8.67,-6.674 -11.41,-11.413 -2.73,-4.739 -4.18,-10.114 -4.18,-15.587 0,-24 -26,-39.07 -46.81,-27.06 -4.75,2.74 -10.13,4.182 -15.61,4.182 -5.48,0 -10.86,-1.442 -15.61,-4.182 v 0 c -4.74,-2.744 -10.13,-4.191 -15.6,-4.195 -5.48,-0.005 -10.87,1.434 -15.62,4.17 -4.74,2.737 -8.69,6.675 -11.43,11.419 -2.74,4.744 -4.19,10.127 -4.19,15.606 v 0 c -0.01,5.475 -1.46,10.851 -4.2,15.59 -2.74,4.739 -6.68,8.674 -11.42,11.41 v 0 c -4.75,2.739 -8.69,6.679 -11.43,11.425 -2.74,4.746 -4.19,10.13 -4.19,15.61 0,5.481 1.45,10.865 4.19,15.611 2.74,4.746 6.68,8.686 11.43,11.424 v 0 c 4.74,2.739 8.67,6.675 11.41,11.414 2.73,4.739 4.18,10.114 4.18,15.586 0,5.473 1.44,10.848 4.17,15.589 2.74,4.741 6.67,8.68 11.4,11.423 4.74,2.743 10.11,4.193 15.58,4.205 5.47,0.012 10.85,-1.415 15.6,-4.137 4.75,-2.741 10.13,-4.184 15.61,-4.184 5.48,0 10.86,1.443 15.61,4.184 4.74,2.741 10.12,4.186 15.6,4.189 5.48,0.003 10.86,-1.436 15.61,-4.172 4.75,-2.736 8.69,-6.673 11.43,-11.415 2.75,-4.742 4.19,-10.123 4.2,-15.602 0.01,-5.474 1.45,-10.851 4.2,-15.59 2.74,-4.739 6.68,-8.674 11.42,-11.41 v 0 c 4.76,-2.731 8.71,-6.668 11.46,-11.413 2.75,-4.745 4.2,-10.13 4.2,-15.614 0.01,-5.484 -1.43,-10.873 -4.17,-15.624 -2.74,-4.751 -6.68,-8.696 -11.43,-11.439 z M 2238.05,549 c -2.94,1.695 -5.39,4.136 -7.09,7.077 -1.7,2.94 -2.59,6.277 -2.59,9.673 -0.01,3.391 -0.91,6.719 -2.61,9.653 -1.7,2.934 -4.14,5.37 -7.07,7.065 -2.94,1.695 -6.27,2.589 -9.66,2.593 -3.39,0.004 -6.72,-0.882 -9.66,-2.571 -2.94,-1.697 -6.28,-2.59 -9.67,-2.59 -3.4,0 -6.74,0.893 -9.68,2.59 -2.94,1.693 -6.28,2.582 -9.67,2.578 -3.4,-0.003 -6.73,-0.9 -9.67,-2.599 -2.93,-1.699 -5.37,-4.141 -7.07,-7.08 -1.7,-2.94 -2.59,-6.275 -2.59,-9.669 0,-3.398 -0.89,-6.737 -2.59,-9.681 -1.69,-2.944 -4.14,-5.389 -7.08,-7.089 v 0 c -2.94,-1.698 -5.38,-4.141 -7.08,-7.082 -1.7,-2.941 -2.59,-6.277 -2.59,-9.673 0,-3.395 0.89,-6.731 2.59,-9.672 1.7,-2.941 4.14,-5.384 7.08,-7.083 2.94,-1.695 5.39,-4.136 7.09,-7.076 1.7,-2.941 2.59,-6.277 2.59,-9.674 0.01,-3.391 0.9,-6.721 2.6,-9.657 1.7,-2.936 4.14,-5.373 7.08,-7.069 2.93,-1.695 6.26,-2.589 9.66,-2.592 3.39,-0.002 6.72,0.887 9.66,2.578 2.94,1.698 6.28,2.591 9.68,2.591 3.39,0 6.73,-0.893 9.67,-2.591 2.94,-1.695 6.28,-2.587 9.67,-2.585 3.4,0.002 6.73,0.898 9.67,2.598 2.94,1.7 5.38,4.143 7.08,7.085 1.69,2.941 2.58,6.277 2.58,9.672 0,3.397 0.89,6.734 2.59,9.676 1.7,2.942 4.14,5.385 7.08,7.084 2.94,1.7 5.38,4.144 7.08,7.086 1.7,2.942 2.59,6.278 2.59,9.674 0,3.397 -0.89,6.733 -2.59,9.675 -1.7,2.942 -4.14,5.385 -7.08,7.085 z"
     fill="#f74700"
     id="path70" />
  <path
     d="m 2189.68,502.2 c -5.93,0 -11.73,1.76 -16.67,5.056 -4.93,3.297 -8.78,7.982 -11.05,13.464 -2.27,5.481 -2.86,11.513 -1.7,17.333 1.15,5.819 4.01,11.165 8.21,15.36 4.19,4.196 9.54,7.053 15.36,8.211 5.82,1.157 11.85,0.563 17.33,-1.707 5.48,-2.271 10.17,-6.116 13.46,-11.05 3.3,-4.933 5.06,-10.733 5.06,-16.667 0,-7.956 -3.16,-15.587 -8.79,-21.213 -5.62,-5.626 -13.25,-8.787 -21.21,-8.787 z m 0,41.85 c -2.34,0 -4.63,-0.695 -6.58,-1.997 -1.95,-1.302 -3.47,-3.153 -4.37,-5.318 -0.89,-2.165 -1.13,-4.548 -0.67,-6.847 0.46,-2.298 1.58,-4.41 3.24,-6.067 1.66,-1.657 3.77,-2.786 6.07,-3.243 2.3,-0.457 4.68,-0.223 6.85,0.674 2.16,0.897 4.01,2.416 5.31,4.365 1.31,1.948 2,4.239 2,6.583 0,3.143 -1.25,6.157 -3.47,8.379 -2.22,2.223 -5.24,3.471 -8.38,3.471 z"
     fill="#f74700"
     id="path72" />
  <path
     d="m 2164.21,349.38 c -2.31,-1.333 -4.22,-3.25 -5.56,-5.558 -1.33,-2.308 -2.03,-4.927 -2.03,-7.592 0,-2.665 -0.7,-5.282 -2.03,-7.591 -1.33,-2.308 -3.24,-4.225 -5.55,-5.559 -2.31,-1.333 -4.92,-2.036 -7.59,-2.038 -2.66,-0.002 -5.28,0.697 -7.59,2.028 v 0 c -2.31,1.334 -4.93,2.036 -7.59,2.036 -2.67,0 -5.29,-0.702 -7.6,-2.036 v 0 c -2.31,-1.335 -4.93,-2.038 -7.59,-2.04 -2.67,-10e-4 -5.29,0.699 -7.59,2.031 -2.31,1.332 -4.23,3.248 -5.56,5.556 -1.34,2.309 -2.04,4.927 -2.04,7.593 0,2.664 -0.7,5.281 -2.03,7.588 -1.33,2.307 -3.25,4.222 -5.56,5.552 v 0 c -2.31,1.332 -4.23,3.248 -5.56,5.557 -1.33,2.308 -2.04,4.927 -2.04,7.593 0,2.666 0.71,5.285 2.04,7.593 1.33,2.308 3.25,4.225 5.56,5.557 2.31,1.332 4.23,3.248 5.56,5.557 1.33,2.308 2.03,4.927 2.03,7.593 v 0 c -0.01,2.665 0.69,5.284 2.02,7.595 1.32,2.311 3.24,4.232 5.54,5.57 2.3,1.338 4.92,2.045 7.59,2.051 2.66,0.006 5.28,-0.689 7.59,-2.016 2.31,-1.334 4.93,-2.037 7.59,-2.037 2.67,0 5.28,0.703 7.59,2.037 2.31,1.334 4.93,2.038 7.59,2.039 2.67,0.002 5.29,-0.699 7.6,-2.03 2.3,-1.332 4.22,-3.249 5.56,-5.557 1.33,-2.308 2.03,-4.927 2.03,-7.592 0,-2.664 0.71,-5.281 2.04,-7.587 1.34,-2.306 3.25,-4.221 5.56,-5.553 2.32,-1.33 4.24,-3.247 5.58,-5.558 1.34,-2.311 2.05,-4.935 2.05,-7.606 0,-2.672 -0.7,-5.297 -2.04,-7.61 -1.33,-2.313 -3.25,-4.233 -5.57,-5.566 z m -18.56,19.86 c -1.18,0.682 -2.16,1.663 -2.85,2.844 -0.68,1.181 -1.04,2.521 -1.04,3.886 0,1.363 -0.36,2.703 -1.04,3.884 -0.68,1.181 -1.66,2.162 -2.84,2.843 -1.18,0.681 -2.52,1.039 -3.89,1.038 -1.36,-0.001 -2.7,-0.362 -3.88,-1.045 -1.18,-0.68 -2.52,-1.038 -3.88,-1.038 -1.36,0 -2.7,0.358 -3.88,1.038 -1.18,0.679 -2.51,1.037 -3.87,1.038 -1.36,10e-4 -2.7,-0.355 -3.88,-1.032 -1.18,-0.677 -2.16,-1.652 -2.84,-2.827 -0.69,-1.175 -1.05,-2.509 -1.06,-3.869 0,-1.363 -0.36,-2.702 -1.04,-3.883 -0.68,-1.181 -1.66,-2.163 -2.84,-2.847 -1.18,-0.683 -2.16,-1.663 -2.84,-2.844 -0.68,-1.18 -1.04,-2.519 -1.04,-3.881 0,-1.363 0.36,-2.701 1.04,-3.882 0.68,-1.18 1.66,-2.161 2.84,-2.843 1.18,-0.681 2.16,-1.661 2.84,-2.84 0.68,-1.18 1.04,-2.518 1.04,-3.88 0,-1.364 0.36,-2.704 1.04,-3.884 0.69,-1.181 1.67,-2.161 2.85,-2.842 1.18,-0.681 2.52,-1.039 3.89,-1.038 1.36,10e-4 2.7,0.361 3.88,1.044 1.18,0.683 2.52,1.043 3.88,1.043 1.36,0 2.7,-0.36 3.88,-1.043 1.18,-0.681 2.52,-1.039 3.89,-1.038 1.36,0.001 2.7,0.361 3.88,1.044 1.18,0.683 2.16,1.665 2.84,2.847 0.68,1.182 1.04,2.523 1.04,3.887 0,1.362 0.36,2.7 1.04,3.88 0.68,1.179 1.66,2.159 2.84,2.84 1.17,0.686 2.14,1.665 2.81,2.84 0.67,1.175 1.03,2.506 1.03,3.86 0,1.354 -0.36,2.685 -1.03,3.86 -0.67,1.175 -1.64,2.154 -2.81,2.84 z"
     fill="#f74700"
     id="path74" />
  <path
     d="m 2126.24,374.64 c 6.7,0 12.13,-5.431 12.13,-12.13 0,-6.699 -5.43,-12.13 -12.13,-12.13 -6.7,0 -12.13,5.431 -12.13,12.13 0,6.699 5.43,12.13 12.13,12.13 z"
     fill="#f74700"
     id="path76" />
  <path
     d="m 646.65,716.06 c 2.309,1.333 4.227,3.249 5.561,5.557 1.333,2.308 2.037,4.927 2.039,7.593 0.005,2.66 0.709,5.272 2.042,7.575 1.332,2.303 3.246,4.215 5.55,5.544 2.304,1.33 4.918,2.031 7.578,2.033 2.66,0.002 5.274,-0.696 7.58,-2.022 2.309,-1.33 4.926,-2.029 7.59,-2.029 2.664,0 5.282,0.699 7.59,2.029 2.311,1.346 4.936,2.057 7.61,2.062 2.674,0.006 5.302,-0.695 7.618,-2.032 2.316,-1.337 4.238,-3.261 5.571,-5.579 1.333,-2.318 2.031,-4.947 2.021,-7.621 v 0 c -0.006,-2.666 0.689,-5.286 2.016,-7.598 1.328,-2.312 3.239,-4.233 5.544,-5.572 2.31,-1.331 4.228,-3.246 5.562,-5.554 1.334,-2.308 2.036,-4.926 2.036,-7.591 0,-2.666 -0.702,-5.284 -2.036,-7.592 -1.334,-2.307 -3.252,-4.223 -5.562,-5.553 v 0 c -2.299,-1.336 -4.207,-3.251 -5.534,-5.555 -1.326,-2.305 -2.025,-4.917 -2.026,-7.575 -0.002,-2.665 -0.705,-5.282 -2.039,-7.589 -1.334,-2.307 -3.252,-4.222 -5.56,-5.553 -2.309,-1.33 -4.927,-2.03 -7.592,-2.028 -2.665,0.002 -5.282,0.706 -7.589,2.04 v 0 c -2.31,1.329 -4.929,2.029 -7.595,2.029 -2.665,0 -5.284,-0.7 -7.595,-2.029 v 0 c -2.308,-1.331 -4.926,-2.03 -7.59,-2.028 -2.665,0.002 -5.282,0.705 -7.588,2.038 -2.307,1.334 -4.222,3.251 -5.552,5.559 -1.331,2.309 -2.031,4.926 -2.03,7.591 0,2.665 -0.702,5.283 -2.034,7.591 -1.332,2.308 -3.248,4.225 -5.556,5.559 -2.311,1.329 -4.231,3.243 -5.567,5.55 -1.336,2.307 -2.041,4.925 -2.044,7.591 -0.003,2.666 0.696,5.286 2.027,7.596 1.331,2.31 3.246,4.228 5.554,5.563 z m 18.53,-19.88 c 1.182,-0.681 2.163,-1.662 2.844,-2.844 0.682,-1.182 1.039,-2.522 1.036,-3.886 v 0 c 0.001,-1.364 0.36,-2.703 1.041,-3.883 0.682,-1.181 1.662,-2.161 2.843,-2.843 1.18,-0.682 2.519,-1.042 3.882,-1.042 1.364,-10e-4 2.703,0.357 3.884,1.038 1.179,0.683 2.518,1.042 3.88,1.042 1.363,0 2.701,-0.359 3.88,-1.042 1.181,-0.683 2.521,-1.043 3.884,-1.044 1.364,-0.001 2.704,0.357 3.886,1.038 1.182,0.681 2.163,1.661 2.846,2.842 0.683,1.18 1.043,2.52 1.044,3.884 10e-4,1.362 0.36,2.699 1.041,3.879 0.681,1.179 1.66,2.159 2.839,2.841 1.182,0.68 2.164,1.66 2.846,2.841 0.683,1.18 1.042,2.52 1.042,3.884 0,1.363 -0.359,2.703 -1.042,3.884 -0.682,1.18 -1.664,2.16 -2.846,2.841 -1.18,0.682 -2.16,1.664 -2.841,2.845 -0.681,1.181 -1.039,2.521 -1.039,3.885 0.002,1.363 -0.355,2.702 -1.036,3.883 -0.68,1.181 -1.66,2.162 -2.84,2.844 -1.179,0.682 -2.518,1.042 -3.881,1.042 -1.363,10e-4 -2.702,-0.358 -3.883,-1.039 -1.181,-0.683 -2.521,-1.043 -3.885,-1.043 -1.364,0 -2.704,0.36 -3.885,1.043 -1.18,0.683 -2.519,1.044 -3.882,1.045 -1.364,10e-4 -2.704,-0.357 -3.885,-1.038 -1.181,-0.681 -2.162,-1.662 -2.844,-2.843 -0.681,-1.181 -1.04,-2.521 -1.039,-3.884 -0.003,-1.363 -0.364,-2.701 -1.046,-3.88 -0.683,-1.18 -1.664,-2.159 -2.844,-2.84 -1.179,-0.683 -2.158,-1.663 -2.839,-2.844 -0.68,-1.18 -1.039,-2.519 -1.039,-3.881 0,-1.363 0.359,-2.701 1.039,-3.882 0.681,-1.18 1.66,-2.161 2.839,-2.843 z"
     fill="#f74700"
     id="path78" />
  <path
     d="m 684.6,715.031 c 6.699,0 12.13,-5.431 12.13,-12.13 0,-6.7 -5.431,-12.13 -12.13,-12.13 -6.699,0 -12.13,5.43 -12.13,12.13 0,6.699 5.431,12.13 12.13,12.13 z"
     fill="#f74700"
     id="path80" />
  <path
     d="m 543.13,559.28 c 4.743,2.736 8.682,6.671 11.424,11.41 2.741,4.739 4.189,10.115 4.196,15.59 0.006,5.479 1.453,10.86 4.196,15.602 2.743,4.742 6.686,8.679 11.433,11.415 4.746,2.736 10.129,4.175 15.608,4.172 5.478,-0.003 10.86,-1.448 15.603,-4.189 v 0 c 4.746,-2.741 10.13,-4.184 15.61,-4.184 5.481,0 10.864,1.443 15.61,4.184 4.747,2.736 10.131,4.175 15.61,4.171 5.48,-0.003 10.861,-1.449 15.605,-4.191 4.744,-2.742 8.682,-6.684 11.42,-11.431 2.737,-4.746 4.177,-10.129 4.175,-15.609 v 0 c 0.004,-5.472 1.446,-10.847 4.182,-15.586 2.736,-4.739 6.671,-8.675 11.408,-11.414 v 0 c 4.745,-2.74 8.685,-6.681 11.425,-11.427 2.739,-4.745 4.181,-10.128 4.181,-15.608 0,-5.479 -1.442,-10.862 -4.181,-15.608 -2.74,-4.745 -6.68,-8.686 -11.425,-11.427 v 0 c -4.742,-2.736 -8.681,-6.671 -11.422,-11.41 -2.742,-4.739 -4.189,-10.115 -4.198,-15.59 -0.002,-5.479 -1.448,-10.862 -4.19,-15.606 -2.743,-4.744 -6.686,-8.682 -11.433,-11.419 -4.748,-2.736 -10.132,-4.175 -15.612,-4.17 -5.48,0.004 -10.862,1.451 -15.605,4.195 -4.746,2.739 -10.13,4.181 -15.61,4.181 -5.48,0 -10.863,-1.442 -15.61,-4.181 v 0 c -20.81,-12 -46.82,3 -46.81,27.06 -0.003,5.472 -1.446,10.848 -4.182,15.586 -2.736,4.739 -6.67,8.676 -11.408,11.414 v 0 c -4.747,2.739 -8.69,6.679 -11.431,11.425 -2.742,4.746 -4.185,10.13 -4.185,15.61 0,5.481 1.443,10.865 4.185,15.611 2.741,4.746 6.684,8.686 11.431,11.424 z m 29.64,-43.81 c 2.941,-1.699 5.383,-4.142 7.081,-7.084 1.697,-2.942 2.59,-6.279 2.589,-9.676 v 0 c -0.003,-3.395 0.889,-6.731 2.584,-9.673 1.695,-2.941 4.135,-5.385 7.075,-7.084 2.939,-1.7 6.274,-2.596 9.669,-2.598 3.395,-0.002 6.731,0.889 9.672,2.585 2.942,1.698 6.279,2.591 9.675,2.591 3.397,0 6.733,-0.893 9.675,-2.591 2.94,-1.691 6.272,-2.58 9.664,-2.578 3.391,0.003 6.723,0.896 9.66,2.592 2.937,1.695 5.377,4.133 7.075,7.069 1.699,2.935 2.596,6.266 2.601,9.657 0,3.397 0.895,6.733 2.594,9.673 1.699,2.941 4.143,5.382 7.086,7.077 2.941,1.699 5.382,4.142 7.08,7.083 1.697,2.941 2.591,6.277 2.591,9.672 0,3.396 -0.894,6.732 -2.591,9.673 -1.698,2.941 -4.139,5.384 -7.08,7.082 v 0 c -2.942,1.7 -5.385,4.145 -7.083,7.089 -1.697,2.944 -2.59,6.283 -2.587,9.681 0,3.394 -0.893,6.729 -2.589,9.668 -1.697,2.94 -4.136,5.382 -7.074,7.081 -2.938,1.699 -6.272,2.596 -9.666,2.599 -3.394,0.004 -6.729,-0.885 -9.671,-2.578 -2.942,-1.697 -6.278,-2.591 -9.675,-2.591 -3.396,0 -6.733,0.894 -9.675,2.591 -2.939,1.692 -6.272,2.581 -9.663,2.578 -3.392,-0.002 -6.723,-0.896 -9.66,-2.591 -2.938,-1.696 -5.378,-4.134 -7.076,-7.069 -1.698,-2.936 -2.595,-6.266 -2.601,-9.658 v 0 c -0.001,-3.392 -0.895,-6.724 -2.59,-9.662 -1.696,-2.938 -4.134,-5.379 -7.07,-7.078 -2.943,-1.697 -5.388,-4.14 -7.089,-7.082 -1.7,-2.941 -2.597,-6.279 -2.599,-9.677 -0.002,-3.398 0.891,-6.737 2.588,-9.68 1.697,-2.944 4.139,-5.39 7.08,-7.091 z"
     fill="#f74700"
     id="path82" />
  <path
     d="m 591.15,532.2 c 0,5.934 1.76,11.734 5.056,16.667 3.297,4.934 7.982,8.779 13.464,11.05 5.482,2.27 11.514,2.864 17.333,1.707 5.819,-1.158 11.165,-4.015 15.361,-8.211 4.195,-4.195 7.052,-9.541 8.21,-15.36 1.157,-5.82 0.563,-11.852 -1.707,-17.333 -2.271,-5.482 -6.116,-10.167 -11.05,-13.464 -4.933,-3.296 -10.733,-5.056 -16.667,-5.056 -7.956,0 -15.587,3.161 -21.213,8.787 -5.626,5.626 -8.787,13.257 -8.787,21.213 z m 18.16,0 c 0,-2.344 0.695,-4.635 1.997,-6.583 1.303,-1.949 3.153,-3.468 5.319,-4.365 2.165,-0.897 4.547,-1.131 6.846,-0.674 2.299,0.457 4.41,1.586 6.068,3.243 1.657,1.657 2.785,3.769 3.243,6.067 0.457,2.299 0.222,4.682 -0.675,6.847 -0.897,2.165 -2.415,4.016 -4.364,5.318 -1.949,1.302 -4.24,1.997 -6.584,1.997 -1.556,0.001 -3.098,-0.304 -4.536,-0.899 -1.438,-0.595 -2.745,-1.468 -3.846,-2.569 -1.1,-1.1 -1.973,-2.407 -2.568,-3.845 -0.595,-1.439 -0.901,-2.98 -0.9,-4.537 z"
     fill="#f74700"
     id="path84" />
  <path
     d="m 646.65,375.68 c 2.308,1.332 4.224,3.247 5.558,5.553 1.334,2.307 2.038,4.923 2.042,7.587 -0.003,2.665 0.694,5.283 2.023,7.593 1.329,2.309 3.242,4.228 5.548,5.564 2.305,1.336 4.922,2.041 7.587,2.045 2.664,0.004 5.283,-0.693 7.592,-2.022 2.307,-1.334 4.925,-2.037 7.59,-2.037 2.666,0 5.283,0.703 7.59,2.037 2.314,1.348 4.943,2.059 7.62,2.063 2.678,0.003 5.309,-0.701 7.626,-2.043 2.317,-1.341 4.238,-3.271 5.568,-5.595 1.331,-2.323 2.023,-4.958 2.006,-7.635 v 0 c -10e-4,-2.665 0.699,-5.284 2.032,-7.593 1.332,-2.308 3.25,-4.225 5.558,-5.557 2.31,-1.332 4.228,-3.248 5.561,-5.557 1.334,-2.308 2.036,-4.927 2.036,-7.593 0,-2.666 -0.702,-5.285 -2.036,-7.593 -1.333,-2.309 -3.251,-4.225 -5.561,-5.557 v 0 c -2.306,-1.333 -4.221,-3.248 -5.553,-5.554 -1.332,-2.307 -2.034,-4.923 -2.037,-7.586 0,-2.666 -0.702,-5.284 -2.035,-7.592 -1.333,-2.308 -3.251,-4.225 -5.56,-5.557 -2.309,-1.332 -4.928,-2.032 -7.593,-2.03 -2.666,10e-4 -5.284,0.704 -7.592,2.039 v 0 c -2.308,1.334 -4.928,2.037 -7.595,2.037 -2.666,0 -5.286,-0.703 -7.595,-2.037 v 0 c -2.308,-1.33 -4.926,-2.03 -7.59,-2.028 -2.665,0.002 -5.281,0.705 -7.588,2.039 -2.307,1.333 -4.221,3.251 -5.552,5.559 -1.331,2.308 -2.031,4.926 -2.03,7.59 10e-4,2.665 -0.7,5.284 -2.032,7.592 -1.333,2.308 -3.249,4.225 -5.558,5.558 -2.31,1.331 -4.23,3.246 -5.566,5.554 -1.336,2.307 -2.041,4.926 -2.044,7.592 -0.003,2.667 0.696,5.287 2.027,7.598 1.33,2.31 3.246,4.23 5.553,5.566 z m 18.53,-19.89 c 1.181,-0.679 2.162,-1.659 2.843,-2.839 0.682,-1.18 1.039,-2.518 1.037,-3.881 v 0 c -10e-4,-1.364 0.357,-2.705 1.038,-3.887 0.681,-1.182 1.661,-2.163 2.841,-2.847 1.181,-0.683 2.521,-1.043 3.885,-1.044 1.364,-10e-4 2.705,0.357 3.886,1.038 1.179,0.683 2.518,1.043 3.88,1.043 1.363,0 2.701,-0.36 3.88,-1.043 1.181,-0.683 2.521,-1.043 3.885,-1.044 1.363,-10e-4 2.704,0.357 3.885,1.038 1.182,0.681 2.164,1.661 2.846,2.842 0.683,1.181 1.043,2.52 1.044,3.884 10e-4,1.362 0.359,2.7 1.04,3.88 0.681,1.179 1.661,2.159 2.84,2.84 1.182,0.68 2.164,1.66 2.847,2.841 0.682,1.181 1.042,2.52 1.042,3.884 0,1.364 -0.36,2.703 -1.042,3.884 -0.683,1.181 -1.665,2.161 -2.847,2.841 -1.179,0.684 -2.157,1.666 -2.838,2.847 -0.681,1.181 -1.04,2.52 -1.042,3.883 0.002,1.363 -0.355,2.702 -1.036,3.883 -0.68,1.181 -1.659,2.162 -2.839,2.845 -1.18,0.682 -2.519,1.041 -3.882,1.042 -1.363,0 -2.702,-0.358 -3.883,-1.04 -1.181,-0.681 -2.521,-1.039 -3.885,-1.039 -1.363,0 -2.703,0.358 -3.885,1.039 -1.176,0.679 -2.511,1.038 -3.87,1.04 -1.358,0.002 -2.694,-0.353 -3.872,-1.03 -1.179,-0.676 -2.159,-1.65 -2.843,-2.824 -0.684,-1.174 -1.047,-2.507 -1.055,-3.866 -0.001,-1.364 -0.361,-2.704 -1.044,-3.886 -0.683,-1.181 -1.664,-2.162 -2.846,-2.844 -1.186,-0.68 -2.173,-1.66 -2.859,-2.843 -0.687,-1.183 -1.049,-2.526 -1.05,-3.894 -10e-4,-1.368 0.359,-2.711 1.044,-3.895 0.685,-1.184 1.67,-2.167 2.855,-2.848 z"
     fill="#f74700"
     id="path86" />
  <path
     d="m 684.6,374.64 c 6.699,0 12.13,-5.431 12.13,-12.13 0,-6.699 -5.431,-12.13 -12.13,-12.13 -6.699,0 -12.13,5.431 -12.13,12.13 0,6.699 5.431,12.13 12.13,12.13 z"
     fill="#f74700"
     id="path88" />
  <path
     d="m 1263.55,571.42 c -3.07,0.28 -6.16,0.42 -9.16,0.42 h -20.23 l 15.14,-17 c 5.2,-5.77 9.53,-10.78 12.87,-14.88 2.95,-3.542 5.62,-7.302 8,-11.25 1.81,-2.998 3.19,-6.237 4.09,-9.62 0.73,-3.002 1.09,-6.081 1.08,-9.17 0.13,-4.674 -0.71,-9.323 -2.46,-13.66 -1.53,-3.638 -3.93,-6.843 -7,-9.33 -3.01,-2.388 -6.5,-4.109 -10.23,-5.05 -7,-1.82 -15,-2 -24.08,-0.18 -4.15,0.769 -8.17,2.115 -11.95,4 l -1.26,0.65 -3.95,16.39 h 6.13 l 0.77,-0.51 c 1.43,-0.929 2.94,-1.716 4.52,-2.35 1.86,-0.767 3.77,-1.412 5.71,-1.93 1.99,-0.53 4.02,-0.927 6.06,-1.19 1.84,-0.254 3.7,-0.388 5.56,-0.4 6.24,0 10.78,1.31 13.48,3.89 1.33,1.274 2.38,2.817 3.07,4.525 0.69,1.709 1,3.544 0.93,5.385 -0.02,1.862 -0.31,3.712 -0.86,5.49 -0.8,2.364 -1.91,4.615 -3.28,6.7 -2.14,3.298 -4.48,6.467 -7,9.49 -3,3.7 -6.83,8.18 -11.42,13.32 l -26.45,30.11 v 3 l 2.75,9.46 h 59.39 l 2.45,-13.46 v -6.38 l -4.14,1.51 c -2.75,1.035 -5.61,1.714 -8.53,2.02 z"
     fill="#b53a25"
     id="path90" />
  <path
     d="m 1388.56,497.43 c -2.68,-4.939 -6.54,-9.14 -11.23,-12.23 -4.7,-3.06 -10.49,-4.61 -17.22,-4.61 -6.73,0 -12.52,1.55 -17.22,4.61 -4.69,3.084 -8.53,7.296 -11.17,12.25 -2.86,5.398 -4.84,11.218 -5.86,17.24 -2.35,13.277 -2.35,26.863 0,40.14 1.02,6.022 3,11.842 5.86,17.24 2.64,4.956 6.48,9.168 11.17,12.25 4.69,3.06 10.49,4.61 17.22,4.61 6.73,0 12.53,-1.55 17.23,-4.61 4.69,-3.094 8.55,-7.294 11.23,-12.23 2.9,-5.393 4.91,-11.223 5.94,-17.26 2.33,-13.278 2.33,-26.862 0,-40.14 -1.03,-6.039 -3.04,-11.869 -5.95,-17.26 z m -7.13,37.33 c -0.03,4.49 -0.37,8.974 -1,13.42 -0.55,4.331 -1.74,8.559 -3.51,12.55 -1.52,3.465 -3.81,6.542 -6.69,9 -2.63,2.19 -6,3.25 -10.16,3.25 -4.16,0 -7.64,-1.06 -10.21,-3.24 -2.84,-2.461 -5.08,-5.54 -6.55,-9 -1.74,-4.01 -2.9,-8.245 -3.46,-12.58 -1.28,-8.901 -1.28,-17.939 0,-26.84 0.56,-4.335 1.72,-8.57 3.46,-12.58 1.47,-3.461 3.71,-6.539 6.55,-9 2.57,-2.18 5.91,-3.24 10.21,-3.24 4.3,0 7.53,1.06 10.15,3.25 2.88,2.455 5.18,5.532 6.7,9 1.77,3.991 2.96,8.218 3.51,12.55 0.63,4.459 0.97,8.956 1,13.46 z"
     fill="#b53a25"
     id="path92" />
  <path
     d="m 1493.31,571.42 c -3.08,0.28 -6.16,0.42 -9.17,0.42 h -20.22 l 15.13,-17 c 5.21,-5.77 9.54,-10.78 12.88,-14.88 2.95,-3.542 5.62,-7.302 8,-11.25 1.81,-2.998 3.19,-6.237 4.09,-9.62 0.72,-3.003 1.09,-6.081 1.08,-9.17 0.12,-4.673 -0.72,-9.322 -2.46,-13.66 -1.54,-3.635 -3.94,-6.839 -7,-9.33 -3.02,-2.386 -6.5,-4.107 -10.23,-5.05 -7,-1.82 -15,-2 -24.08,-0.18 -4.17,0.765 -8.21,2.112 -12,4 l -1.26,0.65 -3.94,16.39 h 6.13 l 0.77,-0.51 c 1.42,-0.929 2.93,-1.716 4.51,-2.35 3.77,-1.552 7.73,-2.602 11.78,-3.12 1.84,-0.254 3.7,-0.388 5.56,-0.4 6.24,0 10.77,1.31 13.48,3.89 1.33,1.274 2.38,2.817 3.07,4.525 0.69,1.709 1,3.544 0.93,5.385 -0.02,1.862 -0.31,3.712 -0.86,5.49 -0.8,2.365 -1.9,4.617 -3.28,6.7 -2.14,3.301 -4.48,6.47 -7,9.49 -3,3.7 -6.83,8.18 -11.41,13.32 l -26.46,30.11 v 3 l 2.76,9.46 h 59.38 l 2.45,-13.46 v -6.38 l -4.14,1.51 c -2.73,1.032 -5.59,1.711 -8.49,2.02 z"
     fill="#b53a25"
     id="path94" />
  <path
     d="m 1590.78,582.79 c -0.73,-4.349 -1.21,-8.736 -1.45,-13.14 -0.23,-4.34 -0.35,-8.82 -0.35,-13.32 v -74.75 h -7.76 l -16.33,9.6 -3.77,15.73 h 5.93 l 7.39,-4.6 v 53.6 c 0,4.53 -0.12,9.08 -0.35,13.53 -0.25,4.476 -0.73,8.936 -1.46,13.36 v 5 h 18.23 v -4.51 z"
     fill="#b53a25"
     id="path96" />
</svg>
