<?xml version="1.0" encoding="UTF-8" standalone="no"?>
<svg
   width="2270"
   height="400"
   viewBox="0 0 2270 400"
   fill="none"
   version="1.1"
   id="svg70"
   sodipodi:docname="hackoberfest21New.svg"
   inkscape:version="1.1 (ce6663b3b7, 2021-05-25)"
   inkscape:export-filename="/home/anonymous/Documents/GITHUB-REPOS/CONTRIBUTION/TECHOUS/HacktoberFest21/client/public/hackoberfest21New.png"
   inkscape:export-xdpi="96"
   inkscape:export-ydpi="96"
   xmlns:inkscape="http://www.inkscape.org/namespaces/inkscape"
   xmlns:sodipodi="http://sodipodi.sourceforge.net/DTD/sodipodi-0.dtd"
   xmlns="http://www.w3.org/2000/svg"
   xmlns:svg="http://www.w3.org/2000/svg">
  <defs
     id="defs74" />
  <sodipodi:namedview
     id="namedview72"
     pagecolor="#ffffff"
     bordercolor="#666666"
     borderopacity="1.0"
     inkscape:pageshadow="2"
     inkscape:pageopacity="0.0"
     inkscape:pagecheckerboard="0"
     showgrid="false"
     inkscape:zoom="0.31723122"
     inkscape:cx="1081.2303"
     inkscape:cy="348.32638"
     inkscape:window-width="1852"
     inkscape:window-height="1016"
     inkscape:window-x="68"
     inkscape:window-y="27"
     inkscape:window-maximized="1"
     inkscape:current-layer="svg70"
     height="419px"
     width="2294px" />
  <path
     d="m 1354.7563,141.81177 -0.3457,-16.70828 -42.952,-0.32152 c 2.6826,56.64476 2.6826,77.09862 2.6826,172.7573 16.0959,8.18294 33.8251,16.68034 40.8059,22.65507 l 33.5568,-43.73786 c -9.3951,-0.94338 -25.2347,-7.23258 -34.0933,-13.2143 0,-56.33023 0,-73.94697 0.5365,-93.143 z"
     fill="#f74700"
     id="path2"
     style="stroke-width:0.645433" />
  <path
     d="m 756.77825,263.24218 -40.26938,34.29709 c 16.09583,8.18294 32.48973,16.68034 39.46459,22.65507 l 33.55682,-43.73786 c -9.39519,-0.94338 -23.89336,-7.23258 -32.75203,-13.2143 z"
     fill="#b53a25"
     id="path4"
     style="stroke-width:0.645433" />
  <path
     d="m 447.76809,161.28732 26.7012,-42.78729 -0.3875,-0.32151 -71.14357,37.13407 c 2.6886,37.12722 2.6886,68.90862 2.6886,132.47842 17.9856,6.2892 46.97599,19.5035 70.34475,32.40333 l 31.41072,-43.73786 c -18.52214,-3.14459 -47.78078,-10.69862 -61.47416,-20.1394 0,-40.27881 0,-62.61943 1.87784,-95.03674 z"
     fill="#f74700"
     id="path6"
     style="stroke-width:0.645433" />
  <path
     d="m 307.5436,276.86877 -5.01952,-1.98459 c -14.76644,-4.40244 -29.25864,-10.06969 -41.33648,-18.5671 0,-40.27881 0.59614,-62.6963 2.46802,-95.10663 h 0.10131 l 26.44485,-42.32628 -0.82864,-0.69881 -71.13761,37.12723 c 2.68264,37.12722 2.68264,68.90862 2.68264,132.47842 15.0347,4.40244 36.23947,19.5035 55.83465,32.40333 0,0 24.16163,-33.66815 30.0694,-41.8511 z"
     fill="#f74700"
     id="path8"
     style="stroke-width:0.645433" />
  <path
     d="m 954.63179,283.10207 -44.83584,-7.23957 c -16.37005,-4.71689 -33.28259,-10.38416 -46.43349,-19.51048 0,-39.96435 0,-62.30498 1.87786,-94.08638 l 0.1848,0.0349 31.49418,-44.11522 -76.5029,37.13422 c 2.68264,37.12722 2.68264,68.90862 2.68264,132.47842 15.02873,4.40244 43.75681,22.96954 55.02985,32.40333 z"
     fill="#f74700"
     id="path10"
     style="stroke-width:0.645433" />
  <path
     d="m 1271.6005,214.13055 h -32.9309 -32.7461 c 0.2683,-17.93819 0.8048,-33.66817 1.8779,-52.86419 l 0.1967,0.0699 26.1468,-43.15088 -71.1436,37.13422 c 2.6886,37.12722 2.6886,68.90863 2.6886,132.47842 17.9797,6.2892 46.9761,19.5035 70.3448,32.40334 l 31.4107,-43.73786 c -18.5221,-3.1446 -47.7807,-10.69863 -61.4741,-20.13941 v -28.32937 l 34.0933,15.73697 c 11.4399,-11.53718 17.3477,-17.82638 31.5657,-29.58019"
     fill="#f74700"
     id="path12"
     style="stroke-width:0.645433" />
  <path
     d="m 92.318417,125.10341 66.302963,9.43387 9.1329,-53.493184 -80.306343,-9.41284 4.85259,53.758654 z"
     fill="#b53a25"
     id="path14"
     style="stroke-width:0.645433" />
  <path
     d="m 176.61294,340.96966 c -2.68859,-56.64469 -2.68859,-97.23796 -2.68859,-160.80077 -15.0347,-4.40244 -46.43947,-22.96954 -57.71251,-32.41732 0,0 -15.42224,20.11146 -25.359933,33.08816 v 13.51479 c 14.176313,5.01738 28.614873,10.98512 40.126373,20.0835 0,50.34851 0,76.16915 -2.6886,132.77192 z"
     fill="#b53a25"
     id="path16"
     style="stroke-width:0.645433" />
  <path
     d="m 1313.9743,297.86071 c 16.0243,8.13403 33.9801,16.40083 40.949,22.36159 l 33.5568,-43.73786 c -8.8765,-0.89447 -24.6088,-7.62391 -33.6701,-13.2772 z"
     fill="#b53a25"
     id="path18"
     style="stroke-width:0.645433" />
  <path
     d="m 1827.827,274.38085 -9.0017,-48.4338 -46.6184,9.315 c -9.0076,-27.32307 -12.9839,-42.85039 -18.8082,-70.17346 13.2403,-9.62246 41.8491,-31.04766 54.0342,-42.8434 21.4611,6.20534 43.1786,13.66153 60.6575,13.66153 l -11.124,50.60707 c -16.9543,-4.34654 -41.3246,-15.21287 -57.2296,-23.284 l 15.0943,52.1584 40.5377,-14.59094 c 7.1536,25.15679 11.9228,48.4338 16.6919,78.26556 -16.9483,13.35406 -32.5791,31.97706 -42.1115,41.92798 -28.0782,-6.20535 -43.4408,-9.62248 -72.8425,-9.62248 4.2386,-22.04712 11.9228,-39.74073 19.0765,-53.10877 z"
     fill="#b53a25"
     id="path20"
     style="stroke-width:0.645433" />
  <path
     d="m 1954.1673,128.43656 h 23.3092 l -3.7081,30.74718 h -20.3939 c -0.5306,26.08619 -0.5306,54.9536 -0.5306,105.56765 8.7454,5.89787 23.0468,12.1102 32.3169,13.0396 l -33.1097,43.15786 c -6.8855,-5.89786 -23.0469,-14.28346 -38.9401,-22.36158 0,-57.74879 0,-101.52859 -0.5245,-139.41052 h -12.7158 c 4.7692,-13.66153 7.1538,-17.07866 11.9229,-30.74718 -0.2623,-12.72514 -0.7928,-25.15679 -1.3235,-37.260004 l 45.0266,6.212339 c -0.5245,11.495255 -1.0611,21.432185 -1.3294,31.054655 z"
     fill="#b53a25"
     id="path22"
     style="stroke-width:0.645433" />
  <path
     d="m 1913.111,298.58727 c 0,-57.74879 0,-101.52859 -0.5245,-139.41052 h -12.7158 c 4.7692,-13.66153 7.1538,-17.07866 11.9229,-30.74718 -0.2623,-12.72514 -0.7928,-25.15679 -1.3235,-37.260004 l 45.0266,6.212339 c -0.5245,11.488265 -1.0551,21.425195 -1.3234,31.047665 h 23.3092 l -3.7081,30.74718 h -20.394 c -0.5305,26.08619 -0.5305,54.9536 -0.5305,105.56765"
     fill="#f74700"
     id="path24"
     style="stroke-width:0.645433" />
  <path
     d="m 1778.2279,234.04614 41.6346,-20.47483 -5.0135,1.80291 -15.0944,-52.1584 6.0926,-39.49616 c -12.9124,12.03333 -39.7388,32.14478 -52.4604,41.35496 5.8243,27.32306 9.8005,42.85039 18.8083,70.17346 z"
     fill="#f74700"
     id="path26"
     style="stroke-width:0.645433" />
  <path
     d="m 1827.827,274.38085 -51.6498,-16.14227 c -7.1536,13.35406 -14.8319,31.04767 -19.0765,53.10877 29.4017,0 44.7643,3.41713 72.8426,9.62247 9.4071,-9.78319 24.7518,-28.06379 41.4438,-41.36893 z"
     fill="#f74700"
     id="path28"
     style="stroke-width:0.645433" />
  <path
     d="m 1723.6691,143.53063 -0.5425,73.31805 c -14.4922,11.96345 -20.4,18.25963 -31.9413,29.90164 l -34.0933,-15.73697 v 28.32234 c 13.7113,9.44079 42.9222,16.99481 61.4741,20.13941 l -31.4107,43.73787 c -23.3509,-12.89985 -52.3472,-26.11415 -70.3448,-32.41033 0,-63.59076 0,-95.35121 -2.6826,-132.47843 l 71.1436,-37.12721 c 11.2849,9.43379 21.7473,13.2143 38.3975,22.33363 z m -33.831,73.63252 v -38.38507 c -9.6636,-5.66028 -18.5222,-9.7832 -30.8683,-14.47214 -1.073,19.18904 -1.6096,34.93998 -1.8778,52.85721 z"
     fill="#f74700"
     id="path30"
     style="stroke-width:0.645433" />
  <path
     d="m 1660.7045,164.30594 -0.042,0.65687 c 11.4579,4.44437 19.9708,8.42054 29.1753,13.81527 v 38.38507 h 32.9129 l 0.3756,-0.31447 0.5425,-73.31805 c -15.8872,-8.70006 -26.1408,-12.5784 -36.8416,-21.08279 z"
     fill="#b53a25"
     id="path32"
     style="stroke-width:0.645433" />
  <path
     d="m 1559.5184,326.33031 0.3821,-0.26274 c -0.5311,-72.28453 0,-97.53217 1.5876,-174.77677 h 14.324 l 11.406,-35.44032 h -24.93 l 3.1053,-30.145514 c 16.1805,-6.02086 28.9403,-16.04724 41.1338,-18.16879 -0.5252,-0.35919 -32.7622,-23.27073 -39.6435,-33.54238 -6.8997,6.73083 -30.5821,15.59371 -46.4937,24.82066 0.7935,18.07095 1.5935,37.20269 2.1247,57.043704 h -0.2629 l -11.4054,35.44033 h 12.7306 c 0.1491,6.18857 0.2927,12.12207 0.4298,17.8718 h -5.336 c 0.5372,43.81403 0.5372,130.38062 0.5372,197.1698 16.1148,9.33875 14.265,5.33533 21.2476,12.1619 l 38.1978,-41.46887 c -9.4059,-1.08453 -10.2655,-3.00692 -19.135,-9.82511 z"
     fill="#b53a25"
     id="path34"
     style="stroke-width:0.645433" />
  <path
     d="m 1565.0953,90.945956 14.6056,-9.4338 25.9709,19.784424 18.1662,-32.523534 c -0.011,-0.19007 -0.074,-0.88677 -0.094,-1.04331 l -52.2269,-39.71767 c -14.8468,10.9425 -42.7964,25.91149 -54.7096,31.83731 z"
     fill="#b53a25"
     id="path36"
     style="stroke-width:0.645433" />
  <path
     d="m 1562.3567,115.93014 2.7386,-25.333584 5.9615,-62.19316 c -4.8896,4.78957 -26.0581,15.85157 -36.8715,22.33363 v -0.23968 l -17.6565,9.2521 c 0.5318,14.01722 1.0754,28.40201 1.3449,43.105454 -0.1735,0.22362 -0.1794,5.5317 -0.1079,13.0438 h -20.3045 l -10.4606,35.47456 h 31.2969 c 0.1914,10.16962 0.3588,17.88857 0.3588,17.88857 0.5384,43.85596 0.5378,130.50641 0.5378,197.36057 l 40.3714,-39.17052 v -0.87 l 0.382,-0.26345 c -0.5318,-72.3537 0,-97.62649 1.59,-174.94517 h 25.7682 l 11.7696,-35.44312 z"
     fill="#f74700"
     id="path38"
     style="stroke-width:0.645433" />
  <path
     d="m 92.300477,125.38991 -4.8526,-53.758654 h -0.23249 c -12.346103,11.96346 -27.380801,25.799689 -40.799968,35.554934 2.682638,56.64476 1.609577,147.27208 -1.079025,206.74691 h 48.055023 c -1.27575,-28.4062 -2.20573,-61.14495 -2.53957,-93.85576 v -57.21772 z"
     fill="#f74700"
     id="path40"
     style="stroke-width:0.645433" />
  <path
     d="m 592.06424,158.21959 c 1.08499,-36.33772 1.19228,-63.961264 2.28918,-86.616344 l -45.63465,6.28919 c 2.68263,56.602904 2.15207,140.340064 2.15207,236.005734 h 40.82379 V 228.9451 Z"
     fill="#f74700"
     id="path42"
     style="stroke-width:0.645433" />
  <path
     d="m 668.17368,222.64892 c -9.12097,-4.72389 -19.32692,-10.38417 -27.6431,-15.41553 l 22.0036,-9.78319 v -56.30228 c -20.39402,-7.86848 -27.37484,-12.57825 -42.14127,-22.9694 0,0 -18.70694,24.16434 -28.12002,36.58901 l -0.0656,8.38559 c 12.88859,2.7952 18.52214,4.09496 30.06941,7.8615 v 16.7013 c 0,3.13761 -18.42079,20.35604 -30.50458,32.93443 l -0.0536,7.46317 0.59614,0.55206 c 15.49969,6.59667 27.30331,12.24297 35.60756,16.63842 0,15.73697 -0.26826,56.32324 -0.26826,69.54453 l 40.53764,5.66028 c -1.38305,-24.22039 -1.38305,-70.16646 -0.0179,-97.85989 z"
     fill="#b53a25"
     id="path44"
     style="stroke-width:0.645433" />
  <path
     d="m 447.76809,161.28732 c 16.91255,6.60366 27.65503,11.64201 42.14723,22.02617 l 22.55206,-42.76654 c -16.45352,-9.0215 -26.86812,-12.82297 -37.99809,-22.02616 z"
     fill="#b53a25"
     id="path46"
     style="stroke-width:0.645433" />
  <path
     d="m 344.67727,263.24218 c -0.44114,-56.26734 -0.27422,-69.54453 -0.27422,-112.65347 -14.6949,-4.3116 -42.43339,-22.124 -54.19526,-31.70454 l -26.48062,42.43809 0.0357,0.15374 c 16.50121,3.494 26.87408,8.75596 40.37669,15.58322 0,28.6508 -0.66172,54.11505 -1.61554,97.83195 l 5.01952,1.98459 -0.63192,1.64218 c 10.46229,20.06254 24.89488,36.0371 31.59552,41.6834 l 33.55087,-43.73786 c -9.12693,-1.5793 -18.52809,-7.23958 -27.3808,-13.2213 z"
     fill="#b53a25"
     id="path48"
     style="stroke-width:0.645433" />
  <path
     d="m 716.50887,297.53927 c 0,-58.52447 0,-102.89824 -0.53057,-141.29029 h -12.88859 c 4.82875,-13.84322 7.24908,-17.30228 12.07784,-31.14557 -0.26827,-12.90683 -0.80479,-25.492215 -1.34132,-37.735174 l 45.63466,6.28919 c -0.53057,11.642004 -1.07305,21.711714 -1.34132,31.445984 h 23.61915 l -3.7557,31.14557 h -20.66824 c -0.53653,26.43559 -0.53653,55.70132 -0.53653,106.9932 z"
     fill="#f74700"
     id="path50"
     style="stroke-width:0.645433" />
  <path
     d="m 865.32377,162.44733 2.62898,0.37037 c 15.5295,3.41014 31.3213,7.95233 43.75683,14.20659 0,29.57319 0,52.8572 -1.88381,98.80328 l 44.80602,7.2745 c -2.68264,-56.6447 -2.68264,-89.36948 -2.68264,-132.47843 -15.03469,-4.40943 -43.76277,-22.97653 -55.03581,-32.41033 z"
     fill="#b53a25"
     id="path52"
     style="stroke-width:0.645433" />
  <path
     d="m 1037.0127,155.92055 c 1.5619,-40.45345 1.0135,-73.220154 1.6394,-93.743914 l -42.41553,15.73698 c 0.8048,56.602694 0.2683,166.775434 0.2683,209.891374 15.03473,4.40244 43.76283,22.96954 55.03583,32.40334 l 71.1555,-37.10626 v -0.0978 l -44.9789,-5.79305 v -0.11879 c -16.8291,-3.49401 -27.2735,-8.80488 -40.9251,-15.70902 0,-15.37359 0,-56.00879 0.2682,-98.17436 z"
     fill="#f74700"
     id="path54"
     style="stroke-width:0.645433" />
  <path
     d="m 1122.6902,282.9693 c -2.6766,-37.0853 -2.6766,-68.8737 -2.6766,-132.38059 -15.0407,-4.40943 -36.2455,-19.51036 -55.8406,-32.41019 0,0 -18.3612,25.47809 -27.0112,37.61624 v 7.40727 c 15.2672,4.40244 30.0098,10.37019 42.6003,18.86759 0,39.90845 -0.6319,62.9898 -2.0328,95.12061 z"
     fill="#b53a25"
     id="path56"
     style="stroke-width:0.645433" />
  <path
     d="m 1207.867,161.58082 1.7168,0.6359 c 11.4638,4.44437 19.6311,7.85451 28.8354,13.2772 v 38.39205 l 33.1635,0.29349 c 0.131,-0.1118 0.5961,-0.55205 0.6974,-0.65687 l 0.2087,-72.97564 c -15.8872,-8.70704 -27.5418,-13.97599 -38.2425,-22.50834 z"
     fill="#b53a25"
     id="path58"
     style="stroke-width:0.645433" />
  <path
     d="m 1370.7627,118.80736 -15.5712,22.65502 -0.3815,0.49615 v 27.88909 l 1.9136,1.15301 c 8.2983,4.09847 16.3998,8.73361 24.2629,13.88515 l 32.1917,-43.10894 c -12.6203,-7.23956 -29.2646,-15.42244 -42.4155,-22.96948 z"
     fill="#b53a25"
     id="path60"
     style="stroke-width:0.645433" />
  <path
     d="m 2053.2233,260.98669 55.2246,-77.1531 9.1645,-40.98649 c -15.6288,5.69782 -30.6276,15.12249 -44.1863,23.66923 l -18.9591,-33.56728 c 19.172,-5.69782 32.2969,-11.18909 51.0515,-18.63415 l 51.0516,31.13151 -20.6285,60.48995 -41.6743,46.90811 c 19.5893,0 39.5958,0.21518 57.7204,-2.63373 l -10.4164,32.87871 h -76.4668 z"
     fill="#677662"
     id="path66"
     style="stroke-width:0.839214" />
  <path
     d="m 2202.2208,287.72862 c 0,-17.09349 -1.4646,-95.78724 -1.4646,-125.36947 l 18.5501,-12.72113 h -27.9273 l 5.425,-30.89911 h 37.501 l -2.2912,30.68392 c 0.2129,48.0012 0.6301,112.88073 2.2912,133.92484 z"
     fill="#677662"
     id="path68"
     style="stroke-width:0.839214" />
</svg>
